<svg xmlns="http://www.w3.org/2000/svg" version="1.1" xmlns:xlink="http://www.w3.org/1999/xlink" viewBox="0 0 200 200"><rect width="200" height="200" fill="url('#gradient')"></rect><defs><linearGradient id="gradient" gradientTransform="rotate(45 0.5 0.5)"><stop offset="0%" stop-color="#353664"></stop><stop offset="100%" stop-color="#211c36"></stop></linearGradient></defs><g><g fill="#fcfb9b" transform="matrix(2.726223931371099,0,0,2.726223931371099,8.53538527536844,114.7760557147318)" stroke="#a8dc9f" stroke-width="0.2"><path d="M0.54-5.24L0.54-5.36Q0.54-6.96 1.06-8.19Q1.59-9.42 2.58-10.09Q3.56-10.76 4.87-10.76L4.87-10.76Q6.52-10.76 7.45-9.65L7.45-9.65L7.57-10.57L10.56-10.57L10.56-0.40Q10.56 1.00 9.91 2.03Q9.26 3.06 8.03 3.61Q6.80 4.16 5.18 4.16L5.18 4.16Q4.01 4.16 2.92 3.72Q1.84 3.28 1.26 2.58L1.26 2.58L2.64 0.64Q3.55 1.73 5.06 1.73L5.06 1.73Q7.25 1.73 7.25-0.52L7.25-0.52L7.25-0.85Q6.30 0.20 4.85 0.20L4.85 0.20Q2.92 0.20 1.73-1.28Q0.54-2.76 0.54-5.24L0.54-5.24ZM3.84-5.16L3.84-5.16Q3.84-3.86 4.33-3.10Q4.81-2.34 5.69-2.34L5.69-2.34Q6.76-2.34 7.25-3.06L7.25-3.06L7.25-7.50Q6.77-8.22 5.71-8.22L5.71-8.22Q4.83-8.22 4.34-7.44Q3.84-6.65 3.84-5.16ZM12.04-5.24L12.04-5.36Q12.04-6.96 12.57-8.19Q13.10-9.42 14.08-10.09Q15.07-10.76 16.38-10.76L16.38-10.76Q18.03-10.76 18.96-9.65L18.96-9.65L19.07-10.57L22.06-10.57L22.06-0.40Q22.06 1.00 21.41 2.03Q20.76 3.06 19.53 3.61Q18.30 4.16 16.68 4.16L16.68 4.16Q15.52 4.16 14.43 3.72Q13.34 3.28 12.76 2.58L12.76 2.58L14.14 0.64Q15.06 1.73 16.56 1.73L16.56 1.73Q18.75 1.73 18.75-0.52L18.75-0.52L18.75-0.85Q17.80 0.20 16.36 0.20L16.36 0.20Q14.42 0.20 13.23-1.28Q12.04-2.76 12.04-5.24L12.04-5.24ZM15.34-5.16L15.34-5.16Q15.34-3.86 15.83-3.10Q16.32-2.34 17.20-2.34L17.20-2.34Q18.26-2.34 18.75-3.06L18.75-3.06L18.75-7.50Q18.27-8.22 17.22-8.22L17.22-8.22Q16.34-8.22 15.84-7.44Q15.34-6.65 15.34-5.16ZM33.17 0L29.88 0Q29.71-0.32 29.57-0.95L29.57-0.95Q28.66 0.20 27.03 0.20L27.03 0.20Q25.54 0.20 24.49-0.71Q23.45-1.61 23.45-2.98L23.45-2.98Q23.45-4.70 24.72-5.58Q25.99-6.46 28.41-6.46L28.41-6.46L29.42-6.46L29.42-7.01Q29.42-8.47 28.16-8.47L28.16-8.47Q26.99-8.47 26.99-7.31L26.99-7.31L23.70-7.31Q23.70-8.85 25.00-9.80Q26.31-10.76 28.33-10.76Q30.35-10.76 31.52-9.78Q32.70-8.79 32.72-7.07L32.72-7.07L32.72-2.39Q32.74-0.94 33.17-0.17L33.17-0.17L33.17 0ZM27.82-2.15L27.82-2.15Q28.44-2.15 28.84-2.41Q29.25-2.68 29.42-3.01L29.42-3.01L29.42-4.70L28.47-4.70Q26.75-4.70 26.75-3.15L26.75-3.15Q26.75-2.71 27.05-2.43Q27.35-2.15 27.82-2.15ZM34.48-10.57L37.57-10.57L37.68-9.33Q38.77-10.76 40.69-10.76L40.69-10.76Q42.34-10.76 43.16-9.78Q43.97-8.79 44.00-6.81L44.00-6.81L44.00 0L40.70 0L40.70-6.67Q40.70-7.47 40.38-7.85Q40.06-8.22 39.21-8.22L39.21-8.22Q38.24-8.22 37.77-7.46L37.77-7.46L37.77 0L34.48 0L34.48-10.57ZM55.63-5.36L55.63-5.20Q55.63-2.60 54.56-1.20Q53.49 0.20 51.53 0.20L51.53 0.20Q49.92 0.20 48.94-1.08L48.94-1.08L48.80 0L45.85 0L45.85-15L49.14-15L49.14-9.72Q50.06-10.76 51.51-10.76L51.51-10.76Q53.49-10.76 54.56-9.35Q55.63-7.93 55.63-5.36L55.63-5.36ZM52.33-5.40L52.33-5.40Q52.33-6.92 51.93-7.57Q51.52-8.22 50.68-8.22L50.68-8.22Q49.57-8.22 49.14-7.37L49.14-7.37L49.14-3.17Q49.56-2.33 50.70-2.33L50.70-2.33Q51.87-2.33 52.18-3.47L52.18-3.47Q52.33-4.02 52.33-5.40ZM63.48 0L63.38-1.14Q62.33 0.20 60.56 0.20L60.56 0.20Q58.82 0.20 57.92-0.82Q57.03-1.83 57.03-3.72L57.03-3.72L57.03-10.57L60.32-10.57L60.32-3.70Q60.32-2.34 61.64-2.34L61.64-2.34Q62.77-2.34 63.25-3.15L63.25-3.15L63.25-10.57L66.56-10.57L66.56 0L63.48 0Z"></path></g></g></svg>